# xmcd
#
# Track frame offsets:
# 150
# 17915
# 38995
# 63310
# 85640
# 103007
# 120712
# 141120
# 151695
# 171737
# 188107
# 205007
# 228117
# 246330
# 262330
# 279022
# 293527
#
# Disc length: 4211 seconds
#
# Revision: 0
# Processed by: cddbd v1.5.2PL0 Copyright (c) Steve Scherf et al.
# Submitted via: Audion 3.0.2 (http://www.panic.com/audion/)
#
DISCID=ea107111
DTITLE=Patty Pravo - Non Ti Bastavo Più
DYEAR=1900
DGENRE=
TTITLE0=Non Ti Bastavo Più
TTITLE1=Col Tempo
TTITLE2=Lover Man
TTITLE3=Emozioni
TTITLE4=No Te Bastava Ya
TTITLE5=Yo
TTITLE6=Canzone Degli Amanti
TTITLE7=The Way Of Love
TTITLE8=A Modo Mio
TTITLE9=I Do Love You
TTITLE10=Samba Preludio
TTITLE11=Wasn't Good Enough
TTITLE12=Foglie Morte
TTITLE13=Une Histoire D'amour
TTITLE14=La Verité De L'amour
TTITLE15=E Tornò La Primavera
TTITLE16=Non Ti Bastavo Più
EXTD=
EXTT0=
EXTT1=
EXTT2=
EXTT3=
EXTT4=
EXTT5=
EXTT6=
EXTT7=
EXTT8=
EXTT9=
EXTT10=
EXTT11=
EXTT12=
EXTT13=
EXTT14=
EXTT15=
EXTT16=
PLAYORDER=
